<svg xmlns="http://www.w3.org/2000/svg" width="42" height="51" viewBox="0 0 42 51">
    <g fill="#444" fill-rule="nonzero">
        <path d="M41.816 44.306l-5.324-6.879a7.71 7.71 0 0 0 4.212-3.134c1.254-2.178.687-4.836.138-7.404a20.316 20.316 0 0 1-.592-4.027c.061-1.36.26-2.71.592-4.03.545-2.57 1.116-5.226-.138-7.401-1.299-2.255-3.913-3.089-6.442-3.894a18.683 18.683 0 0 1-3.637-1.432 17.793 17.793 0 0 1-2.915-2.374C25.834 1.98 23.707 0 21 0s-4.834 1.981-6.711 3.73a17.797 17.797 0 0 1-2.914 2.375A18.678 18.678 0 0 1 7.74 7.533c-2.529.805-5.143 1.64-6.442 3.895C.043 13.606.61 16.264 1.16 18.83c.332 1.32.53 2.67.591 4.031-.061 1.36-.26 2.71-.592 4.03-.545 2.57-1.115 5.227.138 7.401a7.71 7.71 0 0 0 4.217 3.133L.184 44.305a.882.882 0 0 0 .154 1.234.872.872 0 0 0 .646.178l6.256-.785 1.544 5.43a.877.877 0 0 0 .841.638c.27 0 .526-.125.692-.34l5.587-7.222A8.073 8.073 0 0 0 21 45.724a8.073 8.073 0 0 0 5.096-2.286l5.588 7.22a.873.873 0 0 0 1.532-.296l1.544-5.43 6.256.786c.48.06.917-.281.977-.763a.882.882 0 0 0-.177-.65zM9.993 48.213l-1.277-4.49a.875.875 0 0 0-.95-.63l-4.9.616 4.392-5.674.484.156c1.257.348 2.475.826 3.633 1.428a17.793 17.793 0 0 1 2.915 2.374l.3.28-4.597 5.94zM21 43.966c-2.021 0-3.721-1.583-5.522-3.261a19.305 19.305 0 0 0-3.228-2.609 20.229 20.229 0 0 0-3.984-1.583c-2.312-.737-4.497-1.434-5.456-3.1-.915-1.59-.443-3.807.059-6.154.36-1.44.572-2.913.631-4.397a21.624 21.624 0 0 0-.63-4.396c-.502-2.347-.974-4.564-.059-6.156.962-1.665 3.144-2.361 5.456-3.1a20.235 20.235 0 0 0 3.983-1.582 19.304 19.304 0 0 0 3.227-2.609C17.28 3.341 18.98 1.76 21 1.76s3.721 1.582 5.522 3.26c.98.984 2.062 1.858 3.228 2.609a20.229 20.229 0 0 0 3.984 1.583c2.312.738 4.497 1.434 5.456 3.1.915 1.59.443 3.807-.059 6.155a21.632 21.632 0 0 0-.631 4.396c.058 1.484.27 2.957.63 4.397.502 2.346.974 4.563.06 6.155-.963 1.665-3.145 2.362-5.457 3.1-1.38.384-2.715.915-3.983 1.582a19.304 19.304 0 0 0-3.227 2.609c-1.802 1.678-3.502 3.26-5.523 3.26zm13.238-.873a.875.875 0 0 0-.95.63l-1.28 4.49-4.598-5.94.301-.279a17.797 17.797 0 0 1 2.914-2.375 18.678 18.678 0 0 1 3.636-1.428l.484-.156 4.392 5.674-4.9-.616z"/>
        <path d="M20.5 7C11.94 7 5 14.163 5 23s6.94 16 15.5 16C29.06 39 36 31.837 36 23c-.01-8.832-6.944-15.99-15.5-16zm0 30.222c-7.61 0-13.778-6.367-13.778-14.222 0-7.855 6.169-14.222 13.778-14.222 7.61 0 13.778 6.367 13.778 14.222-.01 7.85-6.172 14.213-13.778 14.222z"/>
        <path d="M31.663 19.018a1.765 1.765 0 0 0-1.424-.72h-5.391l-1.674-5.095a1.764 1.764 0 0 0-3.347 0l-1.669 5.095h-5.396c-.973 0-1.762.782-1.762 1.748 0 .56.27 1.086.725 1.415l4.365 3.148-1.668 5.095c-.3.918.206 1.905 1.131 2.203.537.174 1.124.081 1.58-.248l4.368-3.147 4.366 3.148a1.747 1.747 0 0 0 2.071 0c.624-.44.884-1.235.64-1.955l-1.668-5.096 4.365-3.148a1.74 1.74 0 0 0 .388-2.443zm-6.306 4.55a.871.871 0 0 0-.32.979l1.865 5.699-4.883-3.522a.886.886 0 0 0-1.035 0L16.1 30.246l1.865-5.7a.87.87 0 0 0-.32-.977l-4.883-3.522h6.036a.88.88 0 0 0 .837-.604l1.866-5.7 1.865 5.699a.88.88 0 0 0 .838.604l6.035.001-4.882 3.521z"/>
    </g>
</svg>
