<svg xmlns="http://www.w3.org/2000/svg" width="44" height="40" viewBox="0 0 44 40">
    <g fill="#444" fill-rule="nonzero">
        <path d="M38.798 15.252l-.007-.03a.859.859 0 0 0-1.041-.637.874.874 0 0 0-.628 1.057l.005.021a.862.862 0 0 0 1.038.643.874.874 0 0 0 .633-1.054zM16.044 26.136c-2.137-1.31-3.412-3.604-3.412-6.137 0-.782.123-1.551.366-2.285a.877.877 0 0 0-.54-1.107.856.856 0 0 0-1.089.55 9.026 9.026 0 0 0-.456 2.842c0 3.15 1.586 6.003 4.243 7.632a.845.845 0 0 0 .443.126c.291 0 .575-.15.736-.423a.881.881 0 0 0-.291-1.198zM25.685 13.513a8.656 8.656 0 0 0-9.06-1.865.878.878 0 0 0-.507 1.123.855.855 0 0 0 1.105.514 6.958 6.958 0 0 1 7.284 1.5.849.849 0 0 0 1.215-.037.883.883 0 0 0-.037-1.235z"/>
        <path d="M43.14 20.263h-6.464v-1.807c0-.878-.703-1.593-1.567-1.593h-1.154a14.847 14.847 0 0 0-3.948-7.361 14.475 14.475 0 0 0-12.95-4.109.872.872 0 0 0-.692 1.016.86.86 0 0 0 .999.703 12.773 12.773 0 0 1 11.428 3.625 13.093 13.093 0 0 1 3.401 6.126h-4.691c-.864 0-1.567.715-1.567 1.593v1.807H19.47a.866.866 0 0 0-.86.873v5.357c0 .82.315 1.566.826 2.122v4.482c-3.352-.058-6.482-1.406-8.872-3.835-3.068-3.117-4.382-7.561-3.516-11.888a.873.873 0 0 0-.67-1.03.86.86 0 0 0-1.014.682c-.981 4.902.508 9.938 3.984 13.471a14.553 14.553 0 0 0 10.088 4.345v3.164c0 .082.006.163.015.242C9.653 38.124 1.718 29.987 1.718 20c0-3.123.782-6.176 2.267-8.881l2.899 2.96c.161.165.38.258.609.258h5.405l5.298 5.384a.85.85 0 0 0 1.215 0 .883.883 0 0 0 0-1.235l-5.298-5.384V7.609a.88.88 0 0 0-.253-.618l-2.907-2.948a17.702 17.702 0 0 1 8.725-2.295c6.97 0 13.37 4.155 16.303 10.585a.858.858 0 0 0 .78.506.844.844 0 0 0 .36-.08.88.88 0 0 0 .419-1.16 19.94 19.94 0 0 0-7.133-8.366A19.376 19.376 0 0 0 19.677.002c-3.525 0-6.968.954-9.985 2.763L7.219.258a.85.85 0 0 0-.936-.189.873.873 0 0 0-.53.807v4.949H.868a.86.86 0 0 0-.794.538.884.884 0 0 0 .185.951l2.47 2.521A20.206 20.206 0 0 0 0 20c0 5.342 2.047 10.364 5.763 14.141 3.717 3.777 8.659 5.858 13.915 5.858h21.536c1.08 0 1.96-.893 1.96-1.992v-9.39A3.116 3.116 0 0 0 44 26.49v-5.355a.866.866 0 0 0-.86-.873zM7.472 2.98l4.923 4.991v3.38L7.471 6.337V2.98zM6.255 7.571l4.924 5.019H7.85L2.935 7.57h3.32zM27.653 18.61h7.304v1.653h-7.304V18.61zm13.803 15.45h-5.64a.866.866 0 0 0-.859.873c0 .482.385.873.86.873h5.639v2.2a.244.244 0 0 1-.242.246H22.45l-.018-.001h-1.045a.244.244 0 0 1-.232-.245V29.56c.168.029.34.045.517.045h7.087c.152 1.29 1.236 2.295 2.546 2.295 1.313 0 2.398-1.007 2.548-2.301l7.084.004h.002c.175 0 .347-.015.517-.044v4.502zm-10.998-4.768v-1.536h1.695v1.536c0 .474-.38.86-.848.86a.855.855 0 0 1-.847-.86zm11.823-2.8c0 .364-.14.707-.393.965-.254.257-.59.399-.95.399l-7.067-.005v-.8c0-.574-.46-1.041-1.024-1.041h-3.083c-.565 0-1.025.467-1.025 1.041v.806h-7.067c-.74 0-1.343-.612-1.343-1.364v-4.484h21.952v4.482z"/>
        <path d="M32.214 34.315a.859.859 0 0 0-.607-.255.86.86 0 0 0-.609.255.886.886 0 0 0 0 1.235.86.86 0 0 0 .609.256.86.86 0 0 0 .607-.256.887.887 0 0 0 0-1.235z"/>
    </g>
</svg>
