<svg xmlns="http://www.w3.org/2000/svg" width="52" height="34" viewBox="0 0 52 34">
    <g fill="#444" fill-rule="nonzero">
        <path d="M48.609 0H3.39A3.4 3.4 0 0 0 0 3.4v27.2A3.4 3.4 0 0 0 3.391 34h15.826c.624 0 1.13-.507 1.13-1.133 0-.627-.506-1.134-1.13-1.134H3.391c-.623 0-1.13-.507-1.13-1.133V11.333h21.478a1.132 1.132 0 0 0 0-2.266H2.261V3.4c0-.624.507-1.133 1.13-1.133H48.61c.624 0 1.13.509 1.13 1.133v5.667h-9.251C40.02 7.75 38.776 6.8 37.304 6.8h-4.521a3.4 3.4 0 0 0-3.392 3.4v5.667h-1.13a3.4 3.4 0 0 0-3.391 3.4v3.4H7.913c-.624 0-1.13.506-1.13 1.133s.506 1.133 1.13 1.133H24.87V30.6a3.4 3.4 0 0 0 3.39 3.4H48.61A3.4 3.4 0 0 0 52 30.6V3.4A3.4 3.4 0 0 0 48.609 0zM31.652 10.2c0-.624.507-1.133 1.13-1.133h4.522c.624 0 1.13.509 1.13 1.133v5.667h-6.782V10.2zm11.305 20.4c0 .626-.507 1.133-1.13 1.133h-5.653v-6.8h1.13a1.13 1.13 0 0 0 1.13-1.133 1.13 1.13 0 0 0-1.13-1.133h-4.521a1.13 1.13 0 0 0-1.13 1.133 1.13 1.13 0 0 0 1.13 1.133h1.13v6.8h-5.652c-.624 0-1.13-.507-1.13-1.133V19.267c0-.626.506-1.134 1.13-1.134h13.565c.624 0 1.13.508 1.13 1.134V30.6zm6.782 0c0 .626-.506 1.133-1.13 1.133h-3.6a3.37 3.37 0 0 0 .208-1.133V19.267a3.4 3.4 0 0 0-3.39-3.4h-1.131v-4.534h9.043V30.6z"/>
        <path d="M19.217 15.867H7.913a1.132 1.132 0 0 0 0 2.266h11.304a1.132 1.132 0 0 0 0-2.266z"/>
    </g>
</svg>
