<svg xmlns="http://www.w3.org/2000/svg" width="45" height="45" viewBox="0 0 45 45">
    <g fill="#444" fill-rule="nonzero">
        <path d="M38.969 5.402L24.539.068a1.105 1.105 0 0 0-.765 0L9.346 5.402c-.957.354-.956 1.702 0 2.056l1.12.414v10.915a2.592 2.592 0 0 0-1.838 2.473 2.594 2.594 0 0 0 2.596 2.586 2.594 2.594 0 0 0 2.596-2.586c0-1.232-.87-2.265-2.03-2.523V8.362l3.167 1.17v8.68c0 .982.801 1.78 1.787 1.78h14.808c.996 0 1.806-.806 1.806-1.797V15.74a.66.66 0 0 0-.662-.66.66.66 0 0 0-.662.66v2.454c0 .264-.216.48-.482.48H24.82v-5.987l7.215-2.667v2.644c0 .364.296.66.662.66a.66.66 0 0 0 .662-.66V9.532l5.61-2.074c.957-.354.957-1.702 0-2.056zM12.496 21.26a1.272 1.272 0 1 1-2.545 0c0-.699.571-1.267 1.273-1.267s1.272.568 1.272 1.267zm11-2.586h-6.752a.463.463 0 0 1-.464-.462v-8.19l7.215 2.666v5.986zm.661-7.148L10.37 6.43l13.788-5.097L37.945 6.43c-10.846 4.01-.243.089-13.788 5.096zM44.004 19.56a.486.486 0 0 0-.016-.014c-1.37-1.256-3.2-1.124-4.78.346l-7.026 5.805c-.394-.86-1.238-1.717-2.835-1.717-9.196 0-6.853-.407-13.465 2.317l-.06-.161a1.486 1.486 0 0 0-1.914-.863L1.064 30.095a1.586 1.586 0 0 0-.931 2.047l4.474 11.826c.24.636.85 1.029 1.495 1.029.405 0-.474.287 13.405-4.923.37-.14.666-.415.83-.775.213-.47.143-.849-.02-1.282 2.248-.95 2.364-1.086 4.507-1.107a.66.66 0 0 0 .655-.666.66.66 0 0 0-.662-.653h-.006c-2.403.024-2.712.238-4.962 1.191l-3.5-9.251 4.488-1.849c1.295-.489 2.068-.384 8.51-.384.714 0 1.21.245 1.518.748.217.355.27.73.28.825-.015.222-.156 1.446-1.35 1.648-1.803.305-5.693.86-5.732.865a.66.66 0 1 0 .188 1.305c.039-.005 3.945-.562 5.766-.87 1.668-.282 2.288-1.699 2.424-2.624 7.995-6.603 7.61-6.283 7.671-6.34.757-.704 1.885-1.335 2.972-.346 1.236 1.22.085 2.674-.164 2.96l-9.627 10.303c-1.347 1.538-3.169 1.793-3.906 1.83-.539 0-1.029-.001-1.479-.003a.661.661 0 0 0-.664.656.66.66 0 0 0 .659.662 367.614 367.614 0 0 0 1.532.003c.895-.043 3.158-.35 4.848-2.274l9.633-10.309c.851-.972 1.828-3.073.088-4.776zM6.196 43.662a.273.273 0 0 1-.35-.158L1.37 31.677a.27.27 0 0 1 .16-.349c2.82-1.059 6.71-2.52 8.68-3.258l4.665 12.333-8.68 3.258zm12.939-5.029a.16.16 0 0 1-.095.208l-2.925 1.098-4.666-12.333 2.925-1.098a.161.161 0 0 1 .21.094l4.55 12.031z"/>
    </g>
</svg>
