<svg xmlns="http://www.w3.org/2000/svg" width="41" height="41" viewBox="0 0 41 41">
    <g fill="#444" fill-rule="nonzero">
        <path d="M36.73 0H4.27A4.276 4.276 0 0 0 0 4.27v32.46A4.276 4.276 0 0 0 4.27 41h4.272v-1.708H4.27a2.563 2.563 0 0 1-2.563-2.563V4.271a2.563 2.563 0 0 1 2.563-2.563h32.458a2.563 2.563 0 0 1 2.563 2.563v32.458a2.563 2.563 0 0 1-2.563 2.563h-4.27V41h4.27A4.276 4.276 0 0 0 41 36.73V4.27A4.276 4.276 0 0 0 36.73 0z"/>
        <path d="M3.417 6.833h34.167v1.708H3.417zM4.271 3.417h1.708v1.708H4.271zM7.688 3.417h1.708v1.708H7.688zM35.021 3.417h1.708v1.708h-1.708zM19.646 24.771h1.708v5.979h-1.708z"/>
        <path d="M37.06 17.15l-16.229-6.833a.865.865 0 0 0-.662 0L3.939 17.15a.854.854 0 0 0 0 1.575l16.23 6.833a.855.855 0 0 0 .663 0l16.229-6.833a.854.854 0 0 0 0-1.575zM20.5 23.844L6.472 17.937 20.5 12.032l14.028 5.906L20.5 23.845z"/>
        <path d="M30.75 19.646v13.12L20.5 37.498l-10.25-4.732v-13.12H8.542v13.666c0 .334.193.636.496.776l11.104 5.125a.845.845 0 0 0 .716 0l11.104-5.125a.854.854 0 0 0 .496-.776V19.646H30.75zM35.875 17.938v5.125h-1.708a.854.854 0 0 0-.855.854v5.125c0 .471.383.854.855.854h1.708c.227 0 .444-.09.604-.25l.854-.855c.16-.16.25-.377.25-.603v-10.25h-1.708zm0 9.896l-.354.354h-.5V24.77h.854v3.063zM18.792 17.083h3.417v1.708h-3.417z"/>
    </g>
</svg>
