<svg xmlns="http://www.w3.org/2000/svg" width="39" height="51" viewBox="0 0 39 51">
    <g fill="#444" fill-rule="nonzero">
        <path d="M37.906 10.52c-3.427 0-6.037-1.58-7.76-4.692-1.34-2.423-1.629-4.908-1.633-4.94A.995.995 0 0 0 27.524 0H11.476c-.518 0-.95.4-.992.916-.002.025-.219 2.506-1.524 4.923-1.675 3.106-4.322 4.68-7.866 4.68a.995.995 0 0 0-.995.996v11.796c0 6.077 1.811 11.917 5.239 16.887 3.43 4.975 8.209 8.69 13.82 10.744.207.075.464.08.684 0 5.611-2.054 10.39-5.77 13.82-10.744 3.428-4.97 5.24-10.81 5.24-16.887V11.515a.996.996 0 0 0-.996-.996zm-.994 12.79c0 11.398-6.982 21.651-17.412 25.633C9.07 44.96 2.09 34.708 2.09 23.31V12.474c3.817-.288 6.796-2.261 8.655-5.75.982-1.842 1.416-3.672 1.599-4.732h14.336c.207 1.052.681 2.89 1.694 4.742 1.9 3.474 4.839 5.442 8.539 5.738v10.839z"/>
        <path d="M33.927 13.989c-2.904 0-5.246-1.5-6.961-4.458-1.347-2.322-1.785-4.701-1.789-4.724a.995.995 0 0 0-.98-.822h-9.395a.995.995 0 0 0-.97.775c-.02.093-2.167 9.229-8.759 9.229a.995.995 0 0 0 0 1.992c3.42 0 6.365-1.897 8.516-5.486 1.066-1.777 1.682-3.541 1.974-4.518h7.84c.254.99.8 2.74 1.812 4.503 2.068 3.598 5.08 5.5 8.712 5.5a.995.995 0 0 0 0-1.991zM30.169 35.964a1 1 0 0 0-1.38.274c-2.45 3.666-5.662 6.403-9.291 7.914-2.263-.936-4.38-2.404-6.29-4.364a1.016 1.016 0 0 0-1.407-.018c-.39.38-.4 1.018-.018 1.408 2.212 2.27 4.688 3.945 7.359 4.976.233.09.488.089.72-.002 2.114-.827 4.115-2.032 5.947-3.582a25.07 25.07 0 0 0 4.633-5.223.999.999 0 0 0-.273-1.383zM29.485 22.438L26.67 19.62a.994.994 0 0 0-1.407 0l-7.953 7.962-3.575-3.579a.994.994 0 0 0-1.407 0l-2.814 2.818a.997.997 0 0 0-.003 1.405l7.056 7.136c.183.186.444.28.705.281.26 0 .52-.09.706-.277l11.506-11.52a1.005 1.005 0 0 0 0-1.408zM17.279 33.25l-5.657-5.721 1.411-1.412 3.575 3.579a.994.994 0 0 0 1.407 0l7.952-7.962 1.407 1.408L17.28 33.25z"/>
        <ellipse cx="31.539" cy="33.371" rx="1" ry="1"/>
    </g>
</svg>
